<?xml version="1.0" encoding="utf-8"?>
<svg version="1.1" xmlns="http://www.w3.org/2000/svg">
<symbol id="mark" viewBox="0 0 69 110">
<path stroke="#000" stroke-width="3" d="m34.5 1.5c-18.2 0-33 14.8-33 33 0 5.3 1.3 10.4 3.5 14.8 5.4 10.8 29.5 57.7 29.5 57.7s24.1-47 29.5-57.7c2.2-4.5 3.5-9.5 3.5-14.8 0-18.2-14.8-33-33-33zm0 49.5c-9.1 0-16.5-7.4-16.5-16.5s7.4-16.5 16.5-16.5 16.5 7.4 16.5 16.5-7.4 16.5-16.5 16.5z"/>
</symbol>
<symbol id="pin" viewBox="0 0 60 100">
<path fill="#000" d="m25 58v42h10v-42z"/>
<circle stroke="#000" stroke-width="2" cx="30" cy="30" r="27.5"/>
<path fill="#fff" d="m30 14.5c.5 0 1.8-.5 1.8-1.8s-1.3-1.8-1.8-1.8c-5.4 0-10.1 1.9-13.9 5.7s-5.7 8.5-5.7 13.9c0 .5.6 1.8 1.8 1.8s1.8-1.3 1.8-1.8c0-4.4 1.6-8.2 4.7-11.4s6.9-4.6 11.3-4.6z"/>
</symbol>
</svg>